<mxfile host="app.diagrams.net" agent="Mozilla/5.0 (Windows NT 10.0; WOW64) AppleWebKit/537.36 (KHTML, like Gecko) Chrome/94.0.4606.71 Safari/537.36 SE 2.X MetaSr 1.0" version="24.8.4">
  <diagram name="第 1 页" id="xKMHuk5QicEXbyIlAjS4">
    <mxGraphModel dx="794" dy="503" grid="1" gridSize="10" guides="1" tooltips="1" connect="1" arrows="1" fold="1" page="1" pageScale="1" pageWidth="827" pageHeight="1169" math="0" shadow="0">
      <root>
        <mxCell id="0" />
        <mxCell id="1" parent="0" />
        <mxCell id="hPElhBEKUpbvKYV7iMIJ-1" value="App组件" style="rounded=0;whiteSpace=wrap;html=1;" parent="1" vertex="1">
          <mxGeometry x="360" y="50" width="120" height="60" as="geometry" />
        </mxCell>
        <mxCell id="hPElhBEKUpbvKYV7iMIJ-3" value="ToDoHeader组件" style="ellipse;whiteSpace=wrap;html=1;" parent="1" vertex="1">
          <mxGeometry x="360" y="250" width="120" height="80" as="geometry" />
        </mxCell>
        <mxCell id="hPElhBEKUpbvKYV7iMIJ-4" value="ToDoMain组件" style="ellipse;whiteSpace=wrap;html=1;" parent="1" vertex="1">
          <mxGeometry x="80" y="40" width="120" height="80" as="geometry" />
        </mxCell>
        <mxCell id="hPElhBEKUpbvKYV7iMIJ-5" value="ToDoFooter组件" style="ellipse;whiteSpace=wrap;html=1;" parent="1" vertex="1">
          <mxGeometry x="640" y="40" width="120" height="80" as="geometry" />
        </mxCell>
        <mxCell id="hPElhBEKUpbvKYV7iMIJ-7" value="" style="endArrow=classic;html=1;rounded=0;entryX=0.5;entryY=1;entryDx=0;entryDy=0;exitX=0.5;exitY=0;exitDx=0;exitDy=0;" parent="1" source="hPElhBEKUpbvKYV7iMIJ-3" target="hPElhBEKUpbvKYV7iMIJ-1" edge="1">
          <mxGeometry width="50" height="50" relative="1" as="geometry">
            <mxPoint x="170" y="200" as="sourcePoint" />
            <mxPoint x="220" y="150" as="targetPoint" />
          </mxGeometry>
        </mxCell>
        <mxCell id="hPElhBEKUpbvKYV7iMIJ-9" value="用户输入的&lt;div&gt;新任务&lt;/div&gt;" style="text;html=1;align=center;verticalAlign=middle;resizable=0;points=[];autosize=1;strokeColor=none;fillColor=none;rotation=0;" parent="1" vertex="1">
          <mxGeometry x="339" y="165" width="80" height="40" as="geometry" />
        </mxCell>
        <mxCell id="hPElhBEKUpbvKYV7iMIJ-10" value="" style="endArrow=classic;html=1;rounded=0;" parent="1" edge="1">
          <mxGeometry width="50" height="50" relative="1" as="geometry">
            <mxPoint x="201" y="63" as="sourcePoint" />
            <mxPoint x="351" y="63" as="targetPoint" />
          </mxGeometry>
        </mxCell>
        <mxCell id="hPElhBEKUpbvKYV7iMIJ-11" value="" style="endArrow=classic;html=1;rounded=0;" parent="1" edge="1">
          <mxGeometry width="50" height="50" relative="1" as="geometry">
            <mxPoint x="354" y="91" as="sourcePoint" />
            <mxPoint x="204" y="91" as="targetPoint" />
            <Array as="points">
              <mxPoint x="224" y="91" />
            </Array>
          </mxGeometry>
        </mxCell>
        <mxCell id="hPElhBEKUpbvKYV7iMIJ-12" value="内容列表" style="text;html=1;align=center;verticalAlign=middle;resizable=0;points=[];autosize=1;strokeColor=none;fillColor=none;" parent="1" vertex="1">
          <mxGeometry x="240" y="65" width="70" height="30" as="geometry" />
        </mxCell>
        <mxCell id="hPElhBEKUpbvKYV7iMIJ-13" value="要删除任务的id" style="text;html=1;align=center;verticalAlign=middle;resizable=0;points=[];autosize=1;strokeColor=none;fillColor=none;" parent="1" vertex="1">
          <mxGeometry x="220" y="35" width="110" height="30" as="geometry" />
        </mxCell>
        <mxCell id="hPElhBEKUpbvKYV7iMIJ-14" value="" style="endArrow=classic;html=1;rounded=0;" parent="1" edge="1">
          <mxGeometry width="50" height="50" relative="1" as="geometry">
            <mxPoint x="630" y="90" as="sourcePoint" />
            <mxPoint x="490" y="90" as="targetPoint" />
          </mxGeometry>
        </mxCell>
        <mxCell id="hPElhBEKUpbvKYV7iMIJ-15" value="" style="endArrow=classic;html=1;rounded=0;" parent="1" edge="1">
          <mxGeometry width="50" height="50" relative="1" as="geometry">
            <mxPoint x="490" y="65" as="sourcePoint" />
            <mxPoint x="640" y="65" as="targetPoint" />
          </mxGeometry>
        </mxCell>
        <mxCell id="hPElhBEKUpbvKYV7iMIJ-16" value="未完成的任务数量&lt;div&gt;和&lt;span style=&quot;background-color: initial;&quot;&gt;要显示&lt;/span&gt;&lt;span style=&quot;background-color: initial;&quot;&gt;的任务类型status&lt;/span&gt;&lt;/div&gt;&lt;div&gt;&lt;span style=&quot;background-color: initial;&quot;&gt;（全部、已完成、未完成）&lt;/span&gt;&lt;/div&gt;" style="text;html=1;align=center;verticalAlign=middle;resizable=0;points=[];autosize=1;strokeColor=none;fillColor=none;" parent="1" vertex="1">
          <mxGeometry x="480" y="5" width="170" height="60" as="geometry" />
        </mxCell>
        <mxCell id="hPElhBEKUpbvKYV7iMIJ-17" value="用户选择的&lt;div&gt;要显示的任务类型status&lt;/div&gt;" style="text;html=1;align=center;verticalAlign=middle;resizable=0;points=[];autosize=1;strokeColor=none;fillColor=none;" parent="1" vertex="1">
          <mxGeometry x="485" y="90" width="150" height="40" as="geometry" />
        </mxCell>
        <mxCell id="UD7Il4ZyTWa9bobWH3AB-1" value="" style="rounded=0;whiteSpace=wrap;html=1;" parent="1" vertex="1">
          <mxGeometry x="160" y="391" width="540" height="200" as="geometry" />
        </mxCell>
        <mxCell id="UD7Il4ZyTWa9bobWH3AB-2" value="App组件" style="text;html=1;align=center;verticalAlign=middle;resizable=0;points=[];autosize=1;strokeColor=none;fillColor=none;" parent="1" vertex="1">
          <mxGeometry x="385" y="361" width="70" height="30" as="geometry" />
        </mxCell>
        <mxCell id="UD7Il4ZyTWa9bobWH3AB-3" value="ToDoHeader组件" style="rounded=1;whiteSpace=wrap;html=1;" parent="1" vertex="1">
          <mxGeometry x="170" y="401" width="520" height="30" as="geometry" />
        </mxCell>
        <mxCell id="UD7Il4ZyTWa9bobWH3AB-4" value="ToDoMain组件" style="rounded=1;whiteSpace=wrap;html=1;" parent="1" vertex="1">
          <mxGeometry x="170" y="441" width="520" height="100" as="geometry" />
        </mxCell>
        <mxCell id="UD7Il4ZyTWa9bobWH3AB-5" value="ToDoFooter组件" style="rounded=1;whiteSpace=wrap;html=1;" parent="1" vertex="1">
          <mxGeometry x="170" y="551" width="520" height="30" as="geometry" />
        </mxCell>
      </root>
    </mxGraphModel>
  </diagram>
</mxfile>
